<?xml version="1.0" encoding="UTF-8"?>
<svg id="Layer_1" data-name="Layer 1" xmlns="http://www.w3.org/2000/svg" xmlns:xlink="http://www.w3.org/1999/xlink" viewBox="0 0 3007.67 1226.64">
  <defs>
    <style>
      .cls-1, .cls-2 {
        fill: none;
      }

      .cls-2 {
        stroke: #71b9ea;
        stroke-miterlimit: 10;
      }

      .cls-3 {
        clip-path: url(#clippath-1);
      }

      .cls-4 {
        clip-path: url(#clippath-2);
      }

      .cls-5 {
        clip-path: url(#clippath);
      }
    </style>
    <clipPath id="clippath">
      <rect class="cls-1" x="496.38" y="99.68" width="1884.23" height="1126.96"/>
    </clipPath>
    <clipPath id="clippath-1">
      <rect class="cls-1" x="378.64" y="-359.39" width="1126.96" height="1884.23"/>
    </clipPath>
    <clipPath id="clippath-2">
      <rect class="cls-1" x="1502.08" y="-359.39" width="1126.96" height="1884.23"/>
    </clipPath>
  </defs>
  <g class="cls-5">
    <g>
      <g>
        <line class="cls-2" x1="496.88" y1="104.05" x2="496.88" y2="1231.83"/>
        <line class="cls-2" x1="534.38" y1="99.68" x2="534.38" y2="1227.46"/>
      </g>
      <g>
        <line class="cls-2" x1="572.88" y1="104.05" x2="572.88" y2="1231.83"/>
        <line class="cls-2" x1="610.38" y1="99.68" x2="610.38" y2="1227.46"/>
      </g>
      <g>
        <line class="cls-2" x1="648.88" y1="104.05" x2="648.88" y2="1231.83"/>
        <line class="cls-2" x1="686.38" y1="99.68" x2="686.38" y2="1227.46"/>
      </g>
      <g>
        <line class="cls-2" x1="724.88" y1="104.05" x2="724.88" y2="1231.83"/>
        <line class="cls-2" x1="762.38" y1="99.68" x2="762.38" y2="1227.46"/>
      </g>
      <g>
        <line class="cls-2" x1="800.88" y1="104.05" x2="800.88" y2="1231.83"/>
        <line class="cls-2" x1="838.37" y1="99.68" x2="838.37" y2="1227.46"/>
      </g>
      <g>
        <line class="cls-2" x1="876.87" y1="104.05" x2="876.87" y2="1231.83"/>
        <line class="cls-2" x1="914.37" y1="99.68" x2="914.37" y2="1227.46"/>
      </g>
      <g>
        <line class="cls-2" x1="952.87" y1="104.05" x2="952.87" y2="1231.83"/>
        <line class="cls-2" x1="990.37" y1="99.68" x2="990.37" y2="1227.46"/>
      </g>
      <g>
        <line class="cls-2" x1="1028.87" y1="104.05" x2="1028.87" y2="1231.83"/>
        <line class="cls-2" x1="1066.37" y1="99.68" x2="1066.37" y2="1227.46"/>
      </g>
      <g>
        <line class="cls-2" x1="1104.87" y1="104.05" x2="1104.87" y2="1231.83"/>
        <line class="cls-2" x1="1142.37" y1="99.68" x2="1142.37" y2="1227.46"/>
      </g>
      <g>
        <line class="cls-2" x1="1180.87" y1="104.05" x2="1180.87" y2="1231.83"/>
        <line class="cls-2" x1="1218.37" y1="99.68" x2="1218.37" y2="1227.46"/>
      </g>
      <g>
        <line class="cls-2" x1="1256.87" y1="104.05" x2="1256.87" y2="1231.83"/>
        <line class="cls-2" x1="1294.37" y1="99.68" x2="1294.37" y2="1227.46"/>
      </g>
      <g>
        <line class="cls-2" x1="1332.87" y1="104.05" x2="1332.87" y2="1231.83"/>
        <line class="cls-2" x1="1370.36" y1="99.68" x2="1370.36" y2="1227.46"/>
      </g>
      <g>
        <line class="cls-2" x1="1408.86" y1="104.05" x2="1408.86" y2="1231.83"/>
        <line class="cls-2" x1="1446.36" y1="99.68" x2="1446.36" y2="1227.46"/>
      </g>
      <g>
        <line class="cls-2" x1="1484.86" y1="104.05" x2="1484.86" y2="1231.83"/>
        <line class="cls-2" x1="1522.36" y1="99.68" x2="1522.36" y2="1227.46"/>
      </g>
      <g>
        <line class="cls-2" x1="1560.86" y1="104.05" x2="1560.86" y2="1231.83"/>
        <line class="cls-2" x1="1598.36" y1="99.68" x2="1598.36" y2="1227.46"/>
      </g>
      <g>
        <line class="cls-2" x1="1636.86" y1="104.05" x2="1636.86" y2="1231.83"/>
        <line class="cls-2" x1="1674.36" y1="99.68" x2="1674.36" y2="1227.46"/>
      </g>
      <g>
        <line class="cls-2" x1="1712.86" y1="104.05" x2="1712.86" y2="1231.83"/>
        <line class="cls-2" x1="1750.36" y1="99.68" x2="1750.36" y2="1227.46"/>
      </g>
      <g>
        <line class="cls-2" x1="1788.86" y1="104.05" x2="1788.86" y2="1231.83"/>
        <line class="cls-2" x1="1826.36" y1="99.68" x2="1826.36" y2="1227.46"/>
      </g>
      <g>
        <line class="cls-2" x1="1864.86" y1="104.05" x2="1864.86" y2="1231.83"/>
        <line class="cls-2" x1="1902.35" y1="99.68" x2="1902.35" y2="1227.46"/>
      </g>
      <g>
        <line class="cls-2" x1="1940.86" y1="104.05" x2="1940.86" y2="1231.83"/>
        <line class="cls-2" x1="1978.35" y1="99.68" x2="1978.35" y2="1227.46"/>
      </g>
      <g>
        <line class="cls-2" x1="2016.85" y1="104.05" x2="2016.85" y2="1231.83"/>
        <line class="cls-2" x1="2054.35" y1="99.68" x2="2054.35" y2="1227.46"/>
      </g>
      <g>
        <line class="cls-2" x1="2092.85" y1="104.05" x2="2092.85" y2="1231.83"/>
        <line class="cls-2" x1="2130.35" y1="99.68" x2="2130.35" y2="1227.46"/>
      </g>
      <g>
        <line class="cls-2" x1="2168.85" y1="104.05" x2="2168.85" y2="1231.83"/>
        <line class="cls-2" x1="2206.35" y1="99.68" x2="2206.35" y2="1227.46"/>
      </g>
      <g>
        <line class="cls-2" x1="2244.85" y1="104.05" x2="2244.85" y2="1231.83"/>
        <line class="cls-2" x1="2282.35" y1="99.68" x2="2282.35" y2="1227.46"/>
      </g>
      <g>
        <line class="cls-2" x1="2320.85" y1="104.05" x2="2320.85" y2="1231.83"/>
        <line class="cls-2" x1="2358.35" y1="99.68" x2="2358.35" y2="1227.46"/>
      </g>
    </g>
  </g>
  <g class="cls-3">
    <g>
      <g>
        <line class="cls-2" x1="383.01" y1="1220.35" x2="1510.78" y2="1220.35"/>
        <line class="cls-2" x1="378.64" y1="1182.85" x2="1506.41" y2="1182.85"/>
      </g>
      <g>
        <line class="cls-2" x1="383.01" y1="1144.35" x2="1510.78" y2="1144.35"/>
        <line class="cls-2" x1="378.64" y1="1106.85" x2="1506.41" y2="1106.85"/>
      </g>
      <g>
        <line class="cls-2" x1="383.01" y1="1068.35" x2="1510.78" y2="1068.35"/>
        <line class="cls-2" x1="378.64" y1="1030.85" x2="1506.41" y2="1030.85"/>
      </g>
      <g>
        <line class="cls-2" x1="383.01" y1="992.35" x2="1510.78" y2="992.35"/>
        <line class="cls-2" x1="378.64" y1="954.85" x2="1506.41" y2="954.85"/>
      </g>
      <g>
        <line class="cls-2" x1="383.01" y1="916.35" x2="1510.78" y2="916.35"/>
        <line class="cls-2" x1="378.64" y1="878.86" x2="1506.41" y2="878.86"/>
      </g>
      <g>
        <line class="cls-2" x1="383.01" y1="840.36" x2="1510.78" y2="840.36"/>
        <line class="cls-2" x1="378.64" y1="802.86" x2="1506.41" y2="802.86"/>
      </g>
      <g>
        <line class="cls-2" x1="383.01" y1="764.36" x2="1510.78" y2="764.36"/>
        <line class="cls-2" x1="378.64" y1="726.86" x2="1506.41" y2="726.86"/>
      </g>
      <g>
        <line class="cls-2" x1="383.01" y1="688.36" x2="1510.78" y2="688.36"/>
        <line class="cls-2" x1="378.64" y1="650.86" x2="1506.41" y2="650.86"/>
      </g>
      <g>
        <line class="cls-2" x1="383.01" y1="612.36" x2="1510.78" y2="612.36"/>
        <line class="cls-2" x1="378.64" y1="574.86" x2="1506.41" y2="574.86"/>
      </g>
      <g>
        <line class="cls-2" x1="383.01" y1="536.36" x2="1510.78" y2="536.36"/>
        <line class="cls-2" x1="378.64" y1="498.86" x2="1506.41" y2="498.86"/>
      </g>
      <g>
        <line class="cls-2" x1="383.01" y1="460.36" x2="1510.78" y2="460.36"/>
        <line class="cls-2" x1="378.64" y1="422.86" x2="1506.41" y2="422.86"/>
      </g>
      <g>
        <line class="cls-2" x1="383.01" y1="384.36" x2="1510.78" y2="384.36"/>
        <line class="cls-2" x1="378.64" y1="346.87" x2="1506.41" y2="346.87"/>
      </g>
      <g>
        <line class="cls-2" x1="383.01" y1="308.37" x2="1510.78" y2="308.37"/>
        <line class="cls-2" x1="378.64" y1="270.87" x2="1506.41" y2="270.87"/>
      </g>
      <g>
        <line class="cls-2" x1="383.01" y1="232.37" x2="1510.78" y2="232.37"/>
        <line class="cls-2" x1="378.64" y1="194.87" x2="1506.41" y2="194.87"/>
      </g>
      <g>
        <line class="cls-2" x1="383.01" y1="156.37" x2="1510.78" y2="156.37"/>
        <line class="cls-2" x1="378.64" y1="118.87" x2="1506.41" y2="118.87"/>
      </g>
      <g>
        <line class="cls-2" x1="383.01" y1="80.37" x2="1510.78" y2="80.37"/>
        <line class="cls-2" x1="378.64" y1="42.87" x2="1506.41" y2="42.87"/>
      </g>
      <line class="cls-2" x1="383.01" y1="4.37" x2="1510.78" y2="4.37"/>
    </g>
  </g>
  <g class="cls-4">
    <g>
      <g>
        <line class="cls-2" x1="1506.45" y1="1220.35" x2="2634.23" y2="1220.35"/>
        <line class="cls-2" x1="1502.08" y1="1182.85" x2="2629.86" y2="1182.85"/>
      </g>
      <g>
        <line class="cls-2" x1="1506.45" y1="1144.35" x2="2634.23" y2="1144.35"/>
        <line class="cls-2" x1="1502.08" y1="1106.85" x2="2629.86" y2="1106.85"/>
      </g>
      <g>
        <line class="cls-2" x1="1506.45" y1="1068.35" x2="2634.23" y2="1068.35"/>
        <line class="cls-2" x1="1502.08" y1="1030.85" x2="2629.86" y2="1030.85"/>
      </g>
      <g>
        <line class="cls-2" x1="1506.45" y1="992.35" x2="2634.23" y2="992.35"/>
        <line class="cls-2" x1="1502.08" y1="954.85" x2="2629.86" y2="954.85"/>
      </g>
      <g>
        <line class="cls-2" x1="1506.45" y1="916.35" x2="2634.23" y2="916.35"/>
        <line class="cls-2" x1="1502.08" y1="878.86" x2="2629.86" y2="878.86"/>
      </g>
      <g>
        <line class="cls-2" x1="1506.45" y1="840.36" x2="2634.23" y2="840.36"/>
        <line class="cls-2" x1="1502.08" y1="802.86" x2="2629.86" y2="802.86"/>
      </g>
      <g>
        <line class="cls-2" x1="1506.45" y1="764.36" x2="2634.23" y2="764.36"/>
        <line class="cls-2" x1="1502.08" y1="726.86" x2="2629.86" y2="726.86"/>
      </g>
      <g>
        <line class="cls-2" x1="1506.45" y1="688.36" x2="2634.23" y2="688.36"/>
        <line class="cls-2" x1="1502.08" y1="650.86" x2="2629.86" y2="650.86"/>
      </g>
      <g>
        <line class="cls-2" x1="1506.45" y1="612.36" x2="2634.23" y2="612.36"/>
        <line class="cls-2" x1="1502.08" y1="574.86" x2="2629.86" y2="574.86"/>
      </g>
      <g>
        <line class="cls-2" x1="1506.45" y1="536.36" x2="2634.23" y2="536.36"/>
        <line class="cls-2" x1="1502.08" y1="498.86" x2="2629.86" y2="498.86"/>
      </g>
      <g>
        <line class="cls-2" x1="1506.45" y1="460.36" x2="2634.23" y2="460.36"/>
        <line class="cls-2" x1="1502.08" y1="422.86" x2="2629.86" y2="422.86"/>
      </g>
      <g>
        <line class="cls-2" x1="1506.45" y1="384.36" x2="2634.23" y2="384.36"/>
        <line class="cls-2" x1="1502.08" y1="346.87" x2="2629.86" y2="346.87"/>
      </g>
      <g>
        <line class="cls-2" x1="1506.45" y1="308.37" x2="2634.23" y2="308.37"/>
        <line class="cls-2" x1="1502.08" y1="270.87" x2="2629.86" y2="270.87"/>
      </g>
      <g>
        <line class="cls-2" x1="1506.45" y1="232.37" x2="2634.23" y2="232.37"/>
        <line class="cls-2" x1="1502.08" y1="194.87" x2="2629.86" y2="194.87"/>
      </g>
      <g>
        <line class="cls-2" x1="1506.45" y1="156.37" x2="2634.23" y2="156.37"/>
        <line class="cls-2" x1="1502.08" y1="118.87" x2="2629.86" y2="118.87"/>
      </g>
      <g>
        <line class="cls-2" x1="1506.45" y1="80.37" x2="2634.23" y2="80.37"/>
        <line class="cls-2" x1="1502.08" y1="42.87" x2="2629.86" y2="42.87"/>
      </g>
      <line class="cls-2" x1="1506.45" y1="4.37" x2="2634.23" y2="4.37"/>
    </g>
  </g>
  <rect class="cls-2" x="1069.26" y="-14.86" width="37.5" height="68.22" transform="translate(1068.76 1107.26) rotate(-90)"/>
</svg>